<svg width="1139" height="1120" viewBox="0 0 1139 1120" fill="none" xmlns="http://www.w3.org/2000/svg">
<path d="M457.296 1113.98C312.596 1093.82 170.572 1011.43 88.337 899.961C-27.1968 743.351 -28.2093 531.934 85.8162 373.561C149.261 285.441 239.297 227.608 340.004 210.291C375.017 204.27 433.512 203.983 468.088 209.663C591.474 229.93 696.885 307.081 743.426 411.183C786.987 508.62 775.477 624.571 713.693 710.696C669.014 772.979 614.638 809.338 542.48 825.181C508.459 832.651 451.691 830.507 418.437 820.494C377.017 808.026 346.311 791.541 315.995 765.497C262.527 719.563 236.13 659.933 238.757 591.015C242.26 499.105 299.995 421.981 383.438 397.746C399.36 393.122 407.635 392.49 436.833 393.669C466.062 394.854 474.011 396.113 488.429 401.871C522.204 415.36 554.8 445.32 567.254 474.321C577.698 498.642 571.476 523.164 550.533 540.228C524.485 561.452 486.679 554.775 468.922 525.813C460.323 511.789 448.659 504.536 433.769 503.957C395.379 502.463 359.316 535.656 351.856 579.354C344.033 625.172 362.533 664.877 404.64 692.64C471.95 737.021 556.433 723.822 611.464 660.328C641.292 625.912 655.462 588.699 657.124 540.41C658.116 511.582 657.478 505.985 650.504 482.321C628.17 406.531 559.092 345.807 470.111 323.741C437.512 315.657 381.3 314.814 349.923 321.937C298.474 333.618 255.638 356.727 217.036 393.626C167.942 440.554 138.322 491.58 121.278 558.586C112.639 592.549 110.872 660.036 117.727 694.213C132.524 767.983 167.943 832.454 220.164 880.673C301.693 955.955 394.232 997.401 500.01 1006.01C599.435 1014.1 691.674 991.815 779.347 938.529C803.725 923.711 819.742 911.064 850.791 882.114C872.803 861.591 898.254 835.109 907.348 823.267C971.952 739.145 1008.98 651.931 1023.04 550.747C1043.7 402.067 997.467 241.749 900.425 125.562C864.454 82.4953 863.21 80.6861 860.141 66.9922C853.018 35.2139 877.113 3.92686 910.783 1.23459C932.034 -0.464694 943.623 6.0323 969.145 33.9522C1015.84 85.0322 1051.32 139.917 1081.56 207.866C1111.24 274.528 1128.03 336.927 1136.71 412.798C1140.87 449.18 1137.79 550.413 1131.47 585.109C1104.38 733.71 1039.68 857.129 936.161 957.658C810.301 1079.89 631.522 1138.25 457.296 1113.98Z" fill="#7616D0"/>
</svg>
